<svg width="8" height="14" viewBox="0 0 8 14" fill="none" xmlns="http://www.w3.org/2000/svg">
<path fill-rule="evenodd" clip-rule="evenodd" d="M7.35408 6.64584C7.40065 6.69228 7.43759 6.74746 7.4628 6.8082C7.488 6.86895 7.50098 6.93407 7.50098 6.99984C7.50098 7.06561 7.488 7.13073 7.4628 7.19147C7.43759 7.25222 7.40065 7.30739 7.35408 7.35384L1.35408 13.3538C1.2602 13.4477 1.13286 13.5005 1.00008 13.5005C0.867307 13.5005 0.73997 13.4477 0.646083 13.3538C0.552196 13.26 0.499452 13.1326 0.499452 12.9998C0.499452 12.8671 0.552196 12.7397 0.646083 12.6458L6.29308 6.99984L0.646083 1.35384C0.552196 1.25995 0.499452 1.13261 0.499452 0.999838C0.499452 0.867062 0.552196 0.739725 0.646083 0.645838C0.73997 0.551952 0.867307 0.499207 1.00008 0.499207C1.13286 0.499207 1.2602 0.551952 1.35408 0.645838L7.35408 6.64584Z" fill="white"/>
</svg>
